<svg width="341" height="80" viewBox="0 0 341 80" fill="none" xmlns="http://www.w3.org/2000/svg">
<rect width="341" height="80" rx="5" fill="#E9452C"/>
<path d="M31.4357 31.5455H27.967L34.1119 49H38.0153L44.1687 31.5455H40.6914L36.1573 45.2841H35.9783L31.4357 31.5455ZM46.6701 49L48.1104 44.696H54.6729L56.1218 49H59.4968L53.3434 31.5455H49.44L43.2951 49H46.6701ZM48.9627 42.1562L51.3235 35.125H51.4599L53.8207 42.1562H48.9627ZM61.7958 31.5455V49H64.8299V36.983H64.9918L69.8157 48.9489H72.0827L76.9066 37.0085H77.0685V49H80.1026V31.5455H76.2333L71.0515 44.1932H70.8469L65.6651 31.5455H61.7958ZM99.1424 40.2727C99.1424 34.6307 95.6992 31.3068 91.1225 31.3068C86.5373 31.3068 83.1026 34.6307 83.1026 40.2727C83.1026 45.9062 86.5373 49.2386 91.1225 49.2386C95.6992 49.2386 99.1424 45.9148 99.1424 40.2727ZM95.9634 40.2727C95.9634 44.2443 93.9691 46.4006 91.1225 46.4006C88.2844 46.4006 86.2816 44.2443 86.2816 40.2727C86.2816 36.3011 88.2844 34.1449 91.1225 34.1449C93.9691 34.1449 95.9634 36.3011 95.9634 40.2727ZM111.618 36.3438H114.66C114.6 33.3949 112.086 31.3068 108.37 31.3068C104.706 31.3068 101.953 33.3693 101.961 36.4545C101.961 38.9602 103.743 40.4006 106.615 41.142L108.6 41.6534C110.484 42.1307 111.728 42.7188 111.737 44.0739C111.728 45.5653 110.314 46.5625 108.251 46.5625C106.274 46.5625 104.74 45.6761 104.612 43.8438H101.501C101.629 47.3125 104.211 49.2642 108.277 49.2642C112.461 49.2642 114.89 47.1761 114.899 44.0994C114.89 41.0739 112.393 39.6932 109.768 39.071L108.132 38.6619C106.7 38.321 105.149 37.7159 105.166 36.2585C105.174 34.946 106.35 33.983 108.328 33.983C110.211 33.983 111.456 34.8608 111.618 36.3438ZM138.611 37.4347C138.074 33.5568 135.091 31.3068 131.222 31.3068C126.662 31.3068 123.228 34.6307 123.228 40.2727C123.228 45.9062 126.62 49.2386 131.222 49.2386C135.373 49.2386 138.125 46.554 138.611 43.2216L135.424 43.2045C135.023 45.25 133.353 46.4006 131.265 46.4006C128.435 46.4006 126.407 44.2784 126.407 40.2727C126.407 36.3352 128.418 34.1449 131.273 34.1449C133.395 34.1449 135.057 35.3466 135.424 37.4347H138.611ZM157.103 40.2727C157.103 34.6307 153.66 31.3068 149.083 31.3068C144.498 31.3068 141.064 34.6307 141.064 40.2727C141.064 45.9062 144.498 49.2386 149.083 49.2386C153.66 49.2386 157.103 45.9148 157.103 40.2727ZM153.924 40.2727C153.924 44.2443 151.93 46.4006 149.083 46.4006C146.245 46.4006 144.243 44.2443 144.243 40.2727C144.243 36.3011 146.245 34.1449 149.083 34.1449C151.93 34.1449 153.924 36.3011 153.924 40.2727ZM174.436 31.5455H171.292V43.4432H171.138L162.922 31.5455H160.093V49H163.255V37.1108H163.4L171.624 49H174.436V31.5455ZM177.882 49H181.044V41.5852H189.132V49H192.302V31.5455H189.132V38.9347H181.044V31.5455H177.882V49ZM195.741 49H207.162V46.3494H198.903V41.5852H206.505V38.9347H198.903V34.196H207.093V31.5455H195.741V49ZM225.26 37.4347C224.723 33.5568 221.74 31.3068 217.87 31.3068C213.311 31.3068 209.876 34.6307 209.876 40.2727C209.876 45.9062 213.268 49.2386 217.87 49.2386C222.021 49.2386 224.774 46.554 225.26 43.2216L222.072 43.2045C221.672 45.25 220.001 46.4006 217.913 46.4006C215.083 46.4006 213.055 44.2784 213.055 40.2727C213.055 36.3352 215.066 34.1449 217.922 34.1449C220.044 34.1449 221.706 35.3466 222.072 37.4347H225.26ZM228.155 49H239.576V46.3494H231.317V41.5852H238.919V38.9347H231.317V34.196H239.507V31.5455H228.155V49ZM242.733 49H245.895V42.608H249.117L252.543 49H256.071L252.296 42.0795C254.35 41.2528 255.432 39.4972 255.432 37.1278C255.432 33.7955 253.284 31.5455 249.279 31.5455H242.733V49ZM245.895 39.983V34.1875H248.793C251.154 34.1875 252.211 35.2699 252.211 37.1278C252.211 38.9858 251.154 39.983 248.81 39.983H245.895Z" fill="white"/>
<path d="M279 41.5L297.255 41.5L288.87 49.885L291 52L303 40L291 28L288.885 30.115L297.255 38.5L279 38.5L279 41.5Z" fill="white"/>
</svg>