<svg width="292" height="198" viewBox="0 0 292 198" fill="none" xmlns="http://www.w3.org/2000/svg">
<rect width="291" height="198" rx="5" fill="#E9D32B"/>
<path d="M91.8242 34.723H96.8739C96.8313 30.6428 93.582 27.8835 88.511 27.8835C83.5252 27.8835 79.935 30.6001 79.967 34.6591C79.9563 37.9723 82.2788 39.8366 86.0501 40.6996L88.3299 41.2322C90.7269 41.7862 91.8029 42.4361 91.8242 43.6612C91.8029 44.9929 90.5565 45.9197 88.4364 45.9197C86.1033 45.9197 84.5693 44.8331 84.4521 42.7344H79.4024C79.4663 47.8374 83.0139 50.277 88.5004 50.277C93.9336 50.277 97.1509 47.8161 97.1722 43.6719C97.1509 40.1882 94.7965 38.0575 90.4925 37.1094L88.6175 36.6832C86.636 36.2571 85.3789 35.5966 85.4215 34.2969C85.4322 33.1037 86.4549 32.2408 88.5004 32.2408C90.5565 32.2408 91.6857 33.1676 91.8242 34.723ZM99.8356 50H115.049V45.7173H105.109V41.2322H114.271V36.9389H105.109V32.4645H115.049V28.1818H99.8356V50ZM127.215 28.1818V43.267C127.204 45.1527 126.373 46.1435 124.86 46.1435C123.412 46.1435 122.527 45.2166 122.474 43.5227H117.222C117.201 48.2209 120.482 50.2983 124.562 50.2983C129.186 50.2983 132.403 47.5178 132.414 43.267V28.1818H127.215ZM140.444 50L141.882 45.419H149.414L150.852 50H156.52L149.158 28.1818H142.138L134.776 50H140.444ZM143.139 41.4134L145.557 33.679H145.728L148.157 41.4134H143.139ZM178.514 28.1818V41.7969C178.514 44.0661 176.905 45.696 174.551 45.696C172.186 45.696 170.588 44.0661 170.588 41.7969V28.1818H165.314V42.255C165.314 47.1342 169 50.277 174.551 50.277C180.058 50.277 183.776 47.1342 183.776 42.255V28.1818H178.514ZM187.082 28.1818V50H192.217V36.5234H192.398L197.639 49.8615H200.92L206.162 36.598H206.343V50H211.478V28.1818H204.947L199.408 41.6903H199.152L193.612 28.1818H187.082ZM25.8463 86H31.1198V79.2244H34.6993C39.6958 79.2244 42.8172 76.2628 42.8172 71.7351C42.8172 67.25 39.7597 64.1818 34.8591 64.1818H25.8463V86ZM31.1198 75.0696V68.4325H33.7192C36.0843 68.4325 37.352 69.7109 37.352 71.7351C37.352 73.7486 36.0843 75.0696 33.7192 75.0696H31.1198ZM47.5287 86L48.9669 81.419H56.4989L57.9371 86H63.6047L56.2432 64.1818H49.2226L41.8611 86H47.5287ZM50.224 77.4134L52.6423 69.679H52.8128L55.2418 77.4134H50.224ZM62.5154 68.4645H69.1418V86H74.3407V68.4645H80.9564V64.1818H62.5154V68.4645ZM83.5319 86H88.8053V78.532H91.5113L95.4957 86H101.248L96.7208 77.6903C99.1178 76.6037 100.503 74.4624 100.503 71.4474C100.503 66.9624 97.4452 64.1818 92.5447 64.1818H83.5319V86ZM88.8053 74.3771V68.4325H91.4047C93.7698 68.4325 95.0376 69.4233 95.0376 71.4474C95.0376 73.4716 93.7698 74.3771 91.4047 74.3771H88.8053ZM123.988 75.0909C123.988 67.8786 119.429 63.8835 113.569 63.8835C107.688 63.8835 103.161 67.8786 103.161 75.0909C103.161 82.2713 107.688 86.2983 113.569 86.2983C119.429 86.2983 123.988 82.3033 123.988 75.0909ZM118.598 75.0909C118.598 79.3629 116.723 81.6747 113.569 81.6747C110.426 81.6747 108.541 79.3629 108.541 75.0909C108.541 70.8189 110.426 68.5071 113.569 68.5071C116.723 68.5071 118.598 70.8189 118.598 75.0909ZM146.872 72.0866C146.339 66.8665 142.451 63.8835 137.177 63.8835C131.36 63.8835 126.833 67.8786 126.833 75.0909C126.833 82.2713 131.254 86.2983 137.177 86.2983C143.164 86.2983 146.478 82.2287 146.872 78.3615L141.545 78.3295C141.172 80.4283 139.595 81.6747 137.284 81.6747C134.173 81.6747 132.213 79.4268 132.213 75.0909C132.213 70.9254 134.13 68.5071 137.316 68.5071C139.713 68.5071 141.279 69.9027 141.545 72.0866H146.872ZM155.163 64.1818H149.889V86H155.163V64.1818ZM177.042 64.1818H171.779V76.7528H171.598L163.012 64.1818H158.473V86H163.747V73.4077H163.885L172.568 86H177.042V64.1818ZM185.078 86L186.516 81.419H194.048L195.486 86H201.154L193.792 64.1818H186.771L179.41 86H185.078ZM187.773 77.4134L190.191 69.679H190.362L192.791 77.4134H187.773ZM211.567 86C218.215 86 222.338 81.8984 222.338 75.0803C222.338 68.2727 218.215 64.1818 211.557 64.1818H203.503V86H211.567ZM208.776 81.5043V68.6776H211.29C215.04 68.6776 217.054 70.3821 217.054 75.0803C217.054 79.7997 215.04 81.5043 211.365 81.5043H208.776ZM246.01 75.0909C246.01 67.8786 241.45 63.8835 235.591 63.8835C229.71 63.8835 225.182 67.8786 225.182 75.0909C225.182 82.2713 229.71 86.2983 235.591 86.2983C241.45 86.2983 246.01 82.3033 246.01 75.0909ZM240.619 75.0909C240.619 79.3629 238.744 81.6747 235.591 81.6747C232.448 81.6747 230.562 79.3629 230.562 75.0909C230.562 70.8189 232.448 68.5071 235.591 68.5071C238.744 68.5071 240.619 70.8189 240.619 75.0909ZM249.089 86H254.362V78.532H257.068L261.052 86H266.805L262.277 77.6903C264.674 76.6037 266.059 74.4624 266.059 71.4474C266.059 66.9624 263.002 64.1818 258.101 64.1818H249.089V86ZM254.362 74.3771V68.4325H256.961C259.326 68.4325 260.594 69.4233 260.594 71.4474C260.594 73.4716 259.326 74.3771 256.961 74.3771H254.362ZM58.4617 122C65.1095 122 69.2323 117.898 69.2323 111.08C69.2323 104.273 65.1095 100.182 58.4511 100.182H50.3971V122H58.4617ZM55.6706 117.504V104.678H58.1848C61.9348 104.678 63.9482 106.382 63.9482 111.08C63.9482 115.8 61.9348 117.504 58.2593 117.504H55.6706ZM92.9042 111.091C92.9042 103.879 88.3446 99.8835 82.4852 99.8835C76.6045 99.8835 72.0768 103.879 72.0768 111.091C72.0768 118.271 76.6045 122.298 82.4852 122.298C88.3446 122.298 92.9042 118.303 92.9042 111.091ZM87.5136 111.091C87.5136 115.363 85.6386 117.675 82.4852 117.675C79.3424 117.675 77.4568 115.363 77.4568 111.091C77.4568 106.819 79.3424 104.507 82.4852 104.507C85.6386 104.507 87.5136 106.819 87.5136 111.091ZM102.428 122H107.702V115.224H111.281C116.278 115.224 119.399 112.263 119.399 107.735C119.399 103.25 116.342 100.182 111.441 100.182H102.428V122ZM107.702 111.07V104.433H110.301C112.666 104.433 113.934 105.711 113.934 107.735C113.934 109.749 112.666 111.07 110.301 111.07H107.702ZM121.999 122H127.272V114.532H129.978L133.962 122H139.715L135.188 113.69C137.585 112.604 138.97 110.462 138.97 107.447C138.97 102.962 135.912 100.182 131.011 100.182H121.999V122ZM127.272 110.377V104.433H129.872C132.237 104.433 133.504 105.423 133.504 107.447C133.504 109.472 132.237 110.377 129.872 110.377H127.272ZM162.455 111.091C162.455 103.879 157.895 99.8835 152.036 99.8835C146.155 99.8835 141.628 103.879 141.628 111.091C141.628 118.271 146.155 122.298 152.036 122.298C157.895 122.298 162.455 118.303 162.455 111.091ZM157.064 111.091C157.064 115.363 155.189 117.675 152.036 117.675C148.893 117.675 147.008 115.363 147.008 111.091C147.008 106.819 148.893 104.507 152.036 104.507C155.189 104.507 157.064 106.819 157.064 111.091ZM174.397 100.182V115.267C174.387 117.153 173.556 118.143 172.043 118.143C170.594 118.143 169.71 117.217 169.657 115.523H164.405C164.383 120.221 167.665 122.298 171.745 122.298C176.368 122.298 179.586 119.518 179.596 115.267V100.182H174.397ZM182.907 122H198.12V117.717H188.18V113.232H197.342V108.939H188.18V104.464H198.12V100.182H182.907V122ZM200.709 104.464H207.335V122H212.534V104.464H219.15V100.182H200.709V104.464ZM241.322 111.091C241.322 103.879 236.763 99.8835 230.903 99.8835C225.022 99.8835 220.495 103.879 220.495 111.091C220.495 118.271 225.022 122.298 230.903 122.298C236.763 122.298 241.322 118.303 241.322 111.091ZM235.932 111.091C235.932 115.363 234.057 117.675 230.903 117.675C227.76 117.675 225.875 115.363 225.875 111.091C225.875 106.819 227.76 104.507 230.903 104.507C234.057 104.507 235.932 106.819 235.932 111.091Z" fill="white"/>
<path d="M125 161.812L156.186 161.813L141.861 174.739L145.5 178L166 159.5L145.5 141L141.887 144.261L156.186 157.188L125 157.187L125 161.812Z" fill="white"/>
</svg>
