<svg width="292" height="198" viewBox="0 0 292 198" fill="none" xmlns="http://www.w3.org/2000/svg">
<rect width="291" height="198" rx="5" fill="#E99432"/>
<path d="M27.5895 68H32.8629V59.2322H41.5348V54.9389H32.8629V50.4645H42.483V46.1818H27.5895V68ZM47.1332 68L48.5714 63.419H56.1033L57.5416 68H63.2092L55.8477 46.1818H48.8271L41.4656 68H47.1332ZM49.8285 59.4134L52.2468 51.679H52.4173L54.8462 59.4134H49.8285ZM84.3375 54.0866C83.8049 48.8665 79.9164 45.8835 74.6429 45.8835C68.8262 45.8835 64.2985 49.8786 64.2985 57.0909C64.2985 63.7706 68.1231 67.723 73.4178 68.2344L73.0023 70.0774C74.4299 70.2692 75.1117 70.7379 75.0691 71.5689C75.0265 72.4638 73.9292 72.9006 71.9796 72.9006L72.0009 75.0419C75.7829 75.0419 78.0201 73.657 78.0094 71.4517C77.9988 70.0135 76.9867 69.076 75.4206 68.8416L75.5272 68.2663C80.9498 67.8935 83.9647 64.0369 84.3375 60.3615L79.0108 60.3295C78.638 62.4283 77.0613 63.6747 74.7495 63.6747C71.6387 63.6747 69.6785 61.4268 69.6785 57.0909C69.6785 52.9254 71.5961 50.5071 74.7814 50.5071C77.1785 50.5071 78.7445 51.9027 79.0108 54.0866H84.3375ZM91.5179 68L92.9562 63.419H100.488L101.926 68H107.594L100.232 46.1818H93.2118L85.8503 68H91.5179ZM94.2133 59.4134L96.6316 51.679H96.802L99.231 59.4134H94.2133ZM116.388 68H121.662V61.2244H125.241C130.238 61.2244 133.359 58.2628 133.359 53.7351C133.359 49.25 130.302 46.1818 125.401 46.1818H116.388V68ZM121.662 57.0696V50.4325H124.261C126.626 50.4325 127.894 51.7109 127.894 53.7351C127.894 55.7486 126.626 57.0696 124.261 57.0696H121.662ZM138.071 68L139.509 63.419H147.041L148.479 68H154.147L146.785 46.1818H139.765L132.403 68H138.071ZM140.766 59.4134L143.184 51.679H143.355L145.784 59.4134H140.766ZM156.496 68H161.769V60.532H164.475L168.46 68H174.212L169.685 59.6903C172.082 58.6037 173.467 56.4624 173.467 53.4474C173.467 48.9624 170.409 46.1818 165.509 46.1818H156.496V68ZM161.769 56.3771V50.4325H164.369C166.734 50.4325 168.001 51.4233 168.001 53.4474C168.001 55.4716 166.734 56.3771 164.369 56.3771H161.769ZM175.645 50.4645H182.272V68H187.471V50.4645H194.086V46.1818H175.645V50.4645ZM196.662 68H211.875V63.7173H201.935V59.2322H211.097V54.9389H201.935V50.4645H211.875V46.1818H196.662V68ZM229.687 68C236.335 68 240.458 63.8984 240.458 57.0803C240.458 50.2727 236.335 46.1818 229.677 46.1818H221.623V68H229.687ZM226.896 63.5043V50.6776H229.41C233.16 50.6776 235.174 52.3821 235.174 57.0803C235.174 61.7997 233.16 63.5043 229.485 63.5043H226.896ZM264.13 57.0909C264.13 49.8786 259.57 45.8835 253.711 45.8835C247.83 45.8835 243.302 49.8786 243.302 57.0909C243.302 64.2713 247.83 68.2983 253.711 68.2983C259.57 68.2983 264.13 64.3033 264.13 57.0909ZM258.739 57.0909C258.739 61.3629 256.864 63.6747 253.711 63.6747C250.568 63.6747 248.682 61.3629 248.682 57.0909C248.682 52.8189 250.568 50.5071 253.711 50.5071C256.864 50.5071 258.739 52.8189 258.739 57.0909ZM70.7824 82.1818H65.5196V94.7528H65.3385L56.7519 82.1818H52.2135V104H57.487V91.4077H57.6255L66.308 104H70.7824V82.1818ZM94.6913 93.0909C94.6913 85.8786 90.1317 81.8835 84.2723 81.8835C78.3916 81.8835 73.8639 85.8786 73.8639 93.0909C73.8639 100.271 78.3916 104.298 84.2723 104.298C90.1317 104.298 94.6913 100.303 94.6913 93.0909ZM89.3007 93.0909C89.3007 97.3629 87.4257 99.6747 84.2723 99.6747C81.1295 99.6747 79.2439 97.3629 79.2439 93.0909C79.2439 88.8189 81.1295 86.5071 84.2723 86.5071C87.4257 86.5071 89.3007 88.8189 89.3007 93.0909ZM109.563 88.723H114.613C114.571 84.6428 111.321 81.8835 106.25 81.8835C101.264 81.8835 97.6743 84.6001 97.7062 88.6591C97.6956 91.9723 100.018 93.8366 103.789 94.6996L106.069 95.2322C108.466 95.7862 109.542 96.4361 109.563 97.6612C109.542 98.9929 108.296 99.9197 106.176 99.9197C103.843 99.9197 102.309 98.8331 102.191 96.7344H97.1416C97.2055 101.837 100.753 104.277 106.24 104.277C111.673 104.277 114.89 101.816 114.911 97.6719C114.89 94.1882 112.536 92.0575 108.232 91.1094L106.357 90.6832C104.375 90.2571 103.118 89.5966 103.161 88.2969C103.171 87.1037 104.194 86.2408 106.24 86.2408C108.296 86.2408 109.425 87.1676 109.563 88.723ZM129.368 88.723H134.418C134.375 84.6428 131.126 81.8835 126.055 81.8835C121.069 81.8835 117.479 84.6001 117.511 88.6591C117.5 91.9723 119.823 93.8366 123.594 94.6996L125.874 95.2322C128.271 95.7862 129.347 96.4361 129.368 97.6612C129.347 98.9929 128.1 99.9197 125.98 99.9197C123.647 99.9197 122.113 98.8331 121.996 96.7344H116.946C117.01 101.837 120.558 104.277 126.044 104.277C131.478 104.277 134.695 101.816 134.716 97.6719C134.695 94.1882 132.34 92.0575 128.036 91.1094L126.161 90.6832C124.18 90.2571 122.923 89.5966 122.965 88.2969C122.976 87.1037 123.999 86.2408 126.044 86.2408C128.1 86.2408 129.23 87.1676 129.368 88.723ZM157.973 93.0909C157.973 85.8786 153.413 81.8835 147.554 81.8835C141.673 81.8835 137.145 85.8786 137.145 93.0909C137.145 100.271 141.673 104.298 147.554 104.298C153.413 104.298 157.973 100.303 157.973 93.0909ZM152.582 93.0909C152.582 97.3629 150.707 99.6747 147.554 99.6747C144.411 99.6747 142.525 97.3629 142.525 93.0909C142.525 88.8189 144.411 86.5071 147.554 86.5071C150.707 86.5071 152.582 88.8189 152.582 93.0909ZM166.783 86.4645H173.409V104H178.608V86.4645H185.224V82.1818H166.783V86.4645ZM193.073 82.1818H187.799V104H193.073V82.1818ZM196.383 82.1818V104H201.518V90.5234H201.699L206.941 103.862H210.222L215.464 90.598H215.645V104H220.78V82.1818H214.249L208.709 95.6903H208.454L202.914 82.1818H196.383ZM224.069 104H239.282V99.7173H229.342V95.2322H238.504V90.9389H229.342V86.4645H239.282V82.1818H224.069V104Z" fill="white"/>
<path d="M125 161.812L156.186 161.813L141.861 174.739L145.5 178L166 159.5L145.5 141L141.887 144.261L156.186 157.188L125 157.187L125 161.812Z" fill="white"/>
</svg>