<svg width="292" height="198" viewBox="0 0 292 198" fill="none" xmlns="http://www.w3.org/2000/svg">
<rect width="291" height="198" rx="5" fill="#E9452C"/>
<path d="M34.8272 34.723H39.8769C39.8343 30.6428 36.585 27.8835 31.5139 27.8835C26.5281 27.8835 22.938 30.6001 22.9699 34.6591C22.9593 37.9723 25.2817 39.8366 29.053 40.6996L31.3328 41.2322C33.7299 41.7862 34.8058 42.4361 34.8272 43.6612C34.8058 44.9929 33.5594 45.9197 31.4394 45.9197C29.1063 45.9197 27.5722 44.8331 27.455 42.7344H22.4053C22.4692 47.8374 26.0168 50.277 31.5033 50.277C36.9365 50.277 40.1539 47.8161 40.1752 43.6719C40.1539 40.1882 37.7995 38.0575 33.4955 37.1094L31.6205 36.6832C29.6389 36.2571 28.3818 35.5966 28.4245 34.2969C28.4351 33.1037 29.4578 32.2408 31.5033 32.2408C33.5594 32.2408 34.6887 33.1676 34.8272 34.723ZM42.8385 50H58.0516V45.7173H48.112V41.2322H57.2739V36.9389H48.112V32.4645H58.0516V28.1818H42.8385V50ZM70.2178 28.1818V43.267C70.2071 45.1527 69.3762 46.1435 67.8634 46.1435C66.4145 46.1435 65.5303 45.2166 65.477 43.5227H60.2249C60.2036 48.2209 63.4848 50.2983 67.5651 50.2983C72.1887 50.2983 75.406 47.5178 75.4166 43.267V28.1818H70.2178ZM83.4467 50L84.8849 45.419H92.4168L93.855 50H99.5226L92.1611 28.1818H85.1405L77.779 50H83.4467ZM86.142 41.4134L88.5603 33.679H88.7307L91.1597 41.4134H86.142ZM121.517 28.1818V41.7969C121.517 44.0661 119.908 45.696 117.554 45.696C115.188 45.696 113.59 44.0661 113.59 41.7969V28.1818H108.317V42.255C108.317 47.1342 112.003 50.277 117.554 50.277C123.061 50.277 126.779 47.1342 126.779 42.255V28.1818H121.517ZM130.085 28.1818V50H135.22V36.5234H135.401L140.642 49.8615H143.923L149.165 36.598H149.346V50H154.481V28.1818H147.95L142.411 41.6903H142.155L136.615 28.1818H130.085ZM168.935 50L170.373 45.419H177.905L179.343 50H185.011L177.649 28.1818H170.629L163.267 50H168.935ZM171.63 41.4134L174.049 33.679H174.219L176.648 41.4134H171.63ZM187.36 50H201.71V45.7173H192.633V28.1818H187.36V50ZM217.64 28.1818V41.7969C217.64 44.0661 216.031 45.696 213.677 45.696C211.312 45.696 209.714 44.0661 209.714 41.7969V28.1818H204.44V42.255C204.44 47.1342 208.126 50.277 213.677 50.277C219.184 50.277 222.902 47.1342 222.902 42.255V28.1818H217.64ZM244.777 28.1818H239.514V40.7528H239.333L230.746 28.1818H226.208V50H231.481V37.4077H231.62L240.302 50H244.777V28.1818ZM268.685 39.0909C268.685 31.8786 264.126 27.8835 258.266 27.8835C252.386 27.8835 247.858 31.8786 247.858 39.0909C247.858 46.2713 252.386 50.2983 258.266 50.2983C264.126 50.2983 268.685 46.3033 268.685 39.0909ZM263.295 39.0909C263.295 43.3629 261.42 45.6747 258.266 45.6747C255.124 45.6747 253.238 43.3629 253.238 39.0909C253.238 34.8189 255.124 32.5071 258.266 32.5071C261.42 32.5071 263.295 34.8189 263.295 39.0909ZM57.4071 86C64.0548 86 68.1777 81.8984 68.1777 75.0803C68.1777 68.2727 64.0548 64.1818 57.3964 64.1818H49.3424V86H57.4071ZM54.6159 81.5043V68.6776H57.1301C60.8801 68.6776 62.8936 70.3821 62.8936 75.0803C62.8936 79.7997 60.8801 81.5043 57.2046 81.5043H54.6159ZM74.6869 86L76.1251 81.419H83.6571L85.0953 86H90.7629L83.4014 64.1818H76.3808L69.0193 86H74.6869ZM77.3822 77.4134L79.8005 69.679H79.971L82.4 77.4134H77.3822ZM104.231 70.723H109.281C109.239 66.6428 105.989 63.8835 100.918 63.8835C95.9324 63.8835 92.3422 66.6001 92.3742 70.6591C92.3636 73.9723 94.686 75.8366 98.4573 76.6996L100.737 77.2322C103.134 77.7862 104.21 78.4361 104.231 79.6612C104.21 80.9929 102.964 81.9197 100.844 81.9197C98.5106 81.9197 96.9765 80.8331 96.8593 78.7344H91.8096C91.8735 83.8374 95.4211 86.277 100.908 86.277C106.341 86.277 109.558 83.8161 109.579 79.6719C109.558 76.1882 107.204 74.0575 102.9 73.1094L101.025 72.6832C99.0432 72.2571 97.7861 71.5966 97.8288 70.2969C97.8394 69.1037 98.8621 68.2408 100.908 68.2408C102.964 68.2408 104.093 69.1676 104.231 70.723ZM137.257 64.1818H131.994V76.7528H131.813L123.226 64.1818H118.688V86H123.962V73.4077H124.1L132.783 86H137.257V64.1818ZM161.166 75.0909C161.166 67.8786 156.606 63.8835 150.747 63.8835C144.866 63.8835 140.339 67.8786 140.339 75.0909C140.339 82.2713 144.866 86.2983 150.747 86.2983C156.606 86.2983 161.166 82.3033 161.166 75.0909ZM155.775 75.0909C155.775 79.3629 153.9 81.6747 150.747 81.6747C147.604 81.6747 145.718 79.3629 145.718 75.0909C145.718 70.8189 147.604 68.5071 150.747 68.5071C153.9 68.5071 155.775 70.8189 155.775 75.0909ZM176.038 70.723H181.088C181.045 66.6428 177.796 63.8835 172.725 63.8835C167.739 63.8835 164.149 66.6001 164.181 70.6591C164.17 73.9723 166.493 75.8366 170.264 76.6996L172.544 77.2322C174.941 77.7862 176.017 78.4361 176.038 79.6612C176.017 80.9929 174.77 81.9197 172.65 81.9197C170.317 81.9197 168.783 80.8331 168.666 78.7344H163.616C163.68 83.8374 167.228 86.277 172.714 86.277C178.147 86.277 181.365 83.8161 181.386 79.6719C181.365 76.1882 179.01 74.0575 174.706 73.1094L172.831 72.6832C170.85 72.2571 169.593 71.5966 169.635 70.2969C169.646 69.1037 170.669 68.2408 172.714 68.2408C174.77 68.2408 175.9 69.1676 176.038 70.723ZM195.843 70.723H200.892C200.85 66.6428 197.601 63.8835 192.53 63.8835C187.544 63.8835 183.954 66.6001 183.986 70.6591C183.975 73.9723 186.297 75.8366 190.069 76.6996L192.348 77.2322C194.745 77.7862 195.821 78.4361 195.843 79.6612C195.821 80.9929 194.575 81.9197 192.455 81.9197C190.122 81.9197 188.588 80.8331 188.471 78.7344H183.421C183.485 83.8374 187.032 86.277 192.519 86.277C197.952 86.277 201.169 83.8161 201.191 79.6719C201.169 76.1882 198.815 74.0575 194.511 73.1094L192.636 72.6832C190.655 72.2571 189.397 71.5966 189.44 70.2969C189.451 69.1037 190.473 68.2408 192.519 68.2408C194.575 68.2408 195.704 69.1676 195.843 70.723ZM207.9 86L209.338 81.419H216.87L218.308 86H223.976L216.614 64.1818H209.594L202.232 86H207.9ZM210.595 77.4134L213.013 69.679H213.184L215.613 77.4134H210.595ZM237.444 70.723H242.494C242.451 66.6428 239.202 63.8835 234.131 63.8835C229.145 63.8835 225.555 66.6001 225.587 70.6591C225.576 73.9723 227.899 75.8366 231.67 76.6996L233.95 77.2322C236.347 77.7862 237.423 78.4361 237.444 79.6612C237.423 80.9929 236.177 81.9197 234.057 81.9197C231.723 81.9197 230.189 80.8331 230.072 78.7344H225.022C225.086 83.8374 228.634 86.277 234.12 86.277C239.554 86.277 242.771 83.8161 242.792 79.6719C242.771 76.1882 240.417 74.0575 236.113 73.1094L234.238 72.6832C232.256 72.2571 230.999 71.5966 231.042 70.2969C231.052 69.1037 232.075 68.2408 234.12 68.2408C236.177 68.2408 237.306 69.1676 237.444 70.723ZM80.738 104.464H87.3644V122H92.5633V104.464H99.1791V100.182H80.738V104.464ZM114.954 100.182V113.797C114.954 116.066 113.345 117.696 110.991 117.696C108.626 117.696 107.028 116.066 107.028 113.797V100.182H101.755V114.255C101.755 119.134 105.441 122.277 110.991 122.277C116.499 122.277 120.217 119.134 120.217 114.255V100.182H114.954ZM123.522 122H128.796V114.532H131.502L135.486 122H141.239L136.711 113.69C139.108 112.604 140.493 110.462 140.493 107.447C140.493 102.962 137.435 100.182 132.535 100.182H123.522V122ZM128.796 110.377V104.433H131.395C133.76 104.433 135.028 105.423 135.028 107.447C135.028 109.472 133.76 110.377 131.395 110.377H128.796ZM143.385 100.182V122H148.52V108.523H148.701L153.943 121.862H157.224L162.466 108.598H162.647V122H167.782V100.182H161.251L155.711 113.69H155.456L149.916 100.182H143.385ZM175.79 122L177.229 117.419H184.761L186.199 122H191.866L184.505 100.182H177.484L170.123 122H175.79ZM178.486 113.413L180.904 105.679H181.074L183.503 113.413H178.486ZM205.335 106.723H210.385C210.342 102.643 207.093 99.8835 202.022 99.8835C197.036 99.8835 193.446 102.6 193.478 106.659C193.467 109.972 195.79 111.837 199.561 112.7L201.841 113.232C204.238 113.786 205.314 114.436 205.335 115.661C205.314 116.993 204.067 117.92 201.947 117.92C199.614 117.92 198.08 116.833 197.963 114.734H192.913C192.977 119.837 196.525 122.277 202.011 122.277C207.444 122.277 210.662 119.816 210.683 115.672C210.662 112.188 208.307 110.058 204.003 109.109L202.128 108.683C200.147 108.257 198.89 107.597 198.932 106.297C198.943 105.104 199.966 104.241 202.011 104.241C204.067 104.241 205.196 105.168 205.335 106.723Z" fill="white"/>
<path d="M125 161.812L156.186 161.813L141.861 174.739L145.5 178L166 159.5L145.5 141L141.887 144.261L156.186 157.188L125 157.187L125 161.812Z" fill="white"/>
</svg>